<?xml version="1.0" encoding="UTF-8" standalone="no"?>
<!DOCTYPE svg PUBLIC "-//W3C//DTD SVG 1.1//EN" "http://www.w3.org/Graphics/SVG/1.1/DTD/svg11.dtd">
<svg width="100%" height="100%" viewBox="0 0 350 300" version="1.1" xmlns="http://www.w3.org/2000/svg" xmlns:xlink="http://www.w3.org/1999/xlink" xml:space="preserve" xmlns:serif="http://www.serif.com/" style="fill-rule:evenodd;clip-rule:evenodd;stroke-linecap:round;stroke-linejoin:round;stroke-miterlimit:1.5;">
    <g transform="matrix(1,0,0,1,-18.5345,-53.5)">
        <g>
            <path d="M30,203.5L183.164,71.551L54.581,203.5L30,203.5" style="fill:rgb(0,24,255);stroke:rgb(0,24,255);stroke-width:1px;"/>
            <path d="M68.072,203.5L183.164,74.861L89.742,203.5L68.072,203.5" style="fill:rgb(0,24,255);stroke:rgb(0,24,255);stroke-width:1px;"/>
            <path d="M103.06,203.5L178.408,87.154C178.408,87.154 178.175,89.85 178.175,91.043C178.175,92.134 178.408,94.309 178.408,94.309L124.386,203.5L103.06,203.5" style="fill:rgb(0,24,255);stroke:rgb(0,24,255);stroke-width:1px;"/>
            <path d="M137.254,203.5L178.408,104.466C178.408,104.466 179,108.59 179.473,110.103C179.909,111.501 180.961,114.226 180.961,114.226L159.516,203.5L137.254,203.5" style="fill:rgb(0,24,255);stroke:rgb(0,24,255);stroke-width:1px;"/>
            <path d="M172.983,203.5L185.482,123.333C185.482,123.333 187.348,126.213 188.323,127.438C189.24,128.591 191.327,130.683 191.327,130.683L189.146,203.5L172.983,203.5" style="fill:rgb(0,24,255);stroke:rgb(0,24,255);stroke-width:1px;"/>
            <path d="M200,203.5L198.395,137.526C198.395,137.526 201.86,140.706 203.521,142.006C205.063,143.212 208.364,145.327 208.364,145.327L218.327,203.5L200,203.5" style="fill:rgb(0,24,255);stroke:rgb(0,24,255);stroke-width:1px;"/>
            <path d="M230.44,203.5L218.327,150.37C218.327,150.37 223.169,152.716 225.653,153.744C228.176,154.789 233.467,156.64 233.467,156.64L252.709,203.5L230.44,203.5" style="fill:rgb(0,24,255);stroke:rgb(0,24,255);stroke-width:1px;"/>
            <path d="M265.681,203.5L244.493,159.883C244.493,159.883 250.042,161.29 252.709,161.879C255.291,162.449 260.492,163.416 260.492,163.416L287.733,203.5L265.681,203.5" style="fill:rgb(0,24,255);stroke:rgb(0,24,255);stroke-width:1px;"/>
            <path d="M300.779,203.5L271.203,163.416L285.905,163.416L322.054,203.5L300.779,203.5" style="fill:rgb(0,24,255);stroke:rgb(0,24,255);stroke-width:1px;"/>
            <path d="M335.39,203.5L295.401,162.223C295.401,162.223 300.083,162.087 302.243,161.933C304.288,161.788 308.362,161.3 308.362,161.3L357.069,203.5L335.39,203.5Z" style="fill:rgb(0,24,255);stroke:rgb(0,24,255);stroke-width:1px;"/>
        </g>
        <g transform="matrix(-1,0,0,-1,390.528,407)">
            <path d="M33.459,203.5L183.164,71.551L54.581,203.5L33.459,203.5Z" style="fill:rgb(0,24,255);stroke:rgb(0,24,255);stroke-width:1px;"/>
            <path d="M68.475,203.5L183.164,74.861L89.742,203.5L68.475,203.5" style="fill:rgb(0,24,255);stroke:rgb(0,24,255);stroke-width:1px;"/>
            <path d="M103.06,203.5L178.408,87.154C178.408,87.154 178.175,89.85 178.175,91.043C178.175,92.134 178.408,94.309 178.408,94.309L124.386,203.5L103.06,203.5" style="fill:rgb(0,24,255);stroke:rgb(0,24,255);stroke-width:1px;"/>
            <path d="M137.254,203.5L178.408,104.466C178.408,104.466 179,108.59 179.473,110.103C179.909,111.501 180.961,114.226 180.961,114.226L159.516,203.5L137.254,203.5" style="fill:rgb(0,24,255);stroke:rgb(0,24,255);stroke-width:1px;"/>
            <path d="M172.201,203.5L185.482,123.333C185.482,123.333 187.348,126.213 188.323,127.438C189.24,128.591 191.327,130.683 191.327,130.683L190.528,203.5L172.201,203.5" style="fill:rgb(0,24,255);stroke:rgb(0,24,255);stroke-width:1px;"/>
            <path d="M201.505,203.5L198.395,137.526C198.395,137.526 201.86,140.706 203.521,142.006C205.063,143.212 208.364,145.327 208.364,145.327L217.406,203.5L201.505,203.5" style="fill:rgb(0,24,255);stroke:rgb(0,24,255);stroke-width:1px;"/>
            <path d="M230.794,203.5L218.327,150.37C218.327,150.37 223.169,152.716 225.653,153.744C228.176,154.789 233.467,156.64 233.467,156.64L253.274,203.5L230.794,203.5Z" style="fill:rgb(0,24,255);stroke:rgb(0,24,255);stroke-width:1px;"/>
            <path d="M266.134,203.5L244.493,159.883C244.493,159.883 250.042,161.29 252.709,161.879C255.291,162.449 260.492,163.416 260.492,163.416L287.469,203.5L266.134,203.5" style="fill:rgb(0,24,255);stroke:rgb(0,24,255);stroke-width:1px;"/>
            <path d="M300.779,203.5L271.203,163.416L285.905,163.416L322.456,203.5L300.779,203.5" style="fill:rgb(0,24,255);stroke:rgb(0,24,255);stroke-width:1px;"/>
            <path d="M335.39,203.5L295.401,162.223C295.401,162.223 300.083,162.087 302.243,161.933C304.288,161.788 308.362,161.3 308.362,161.3L360.528,203.5L335.39,203.5" style="fill:rgb(0,24,255);stroke:rgb(0,24,255);stroke-width:1px;"/>
        </g>
    </g>
</svg>
